<mxfile host="app.diagrams.net" modified="2022-01-29T07:50:10.173Z" agent="5.0 (Windows NT 10.0; Win64; x64) AppleWebKit/537.36 (KHTML, like Gecko) Chrome/97.0.4692.71 Safari/537.36 Edg/97.0.1072.62" etag="RWJoz0YqnQYtgxBBgosP" version="16.5.2" type="github">
  <diagram id="-aN5s4NuG4AfuPkyMjM2" name="第 1 页">
    <mxGraphModel dx="920" dy="551" grid="1" gridSize="10" guides="1" tooltips="1" connect="1" arrows="1" fold="1" page="1" pageScale="1" pageWidth="827" pageHeight="1169" math="0" shadow="0">
      <root>
        <mxCell id="0" />
        <mxCell id="1" parent="0" />
        <mxCell id="e8mMAGKtb8gV0RsEyelg-23" style="edgeStyle=orthogonalEdgeStyle;rounded=0;orthogonalLoop=1;jettySize=auto;html=1;exitX=1;exitY=0;exitDx=0;exitDy=0;entryX=0.583;entryY=1.164;entryDx=0;entryDy=0;entryPerimeter=0;fontSize=19;" edge="1" parent="1" source="e8mMAGKtb8gV0RsEyelg-1" target="e8mMAGKtb8gV0RsEyelg-19">
          <mxGeometry relative="1" as="geometry" />
        </mxCell>
        <mxCell id="e8mMAGKtb8gV0RsEyelg-1" value="&lt;pre style=&quot;background-color: rgb(43 , 43 , 43) ; color: rgb(169 , 183 , 198) ; font-family: &amp;#34;jetbrains mono&amp;#34; , monospace&quot;&gt;&lt;font style=&quot;font-size: 19px&quot;&gt;&lt;b&gt;REDecoder&lt;/b&gt;&lt;/font&gt;&lt;/pre&gt;" style="ellipse;whiteSpace=wrap;html=1;" vertex="1" parent="1">
          <mxGeometry x="340" y="200" width="120" height="80" as="geometry" />
        </mxCell>
        <mxCell id="e8mMAGKtb8gV0RsEyelg-18" style="edgeStyle=orthogonalEdgeStyle;rounded=0;orthogonalLoop=1;jettySize=auto;html=1;exitX=0.5;exitY=1;exitDx=0;exitDy=0;entryX=0;entryY=0;entryDx=0;entryDy=0;fontSize=19;" edge="1" parent="1" source="e8mMAGKtb8gV0RsEyelg-13" target="e8mMAGKtb8gV0RsEyelg-1">
          <mxGeometry relative="1" as="geometry" />
        </mxCell>
        <mxCell id="e8mMAGKtb8gV0RsEyelg-13" value="&lt;pre style=&quot;background-color: #2b2b2b ; color: #a9b7c6 ; font-family: &amp;#34;jetbrains mono&amp;#34; , monospace ; font-size: 9.8pt&quot;&gt;sequence_output --&amp;gt;[batch_size, seq_length, hidden_size]&lt;br&gt;entities --&amp;gt; list --&amp;gt;[{&#39;start&#39;:[0,8,...],&#39;end&#39;:[1,9,...],&#39;label&#39;: [0,0,1,..]}] &lt;br&gt;relations --&amp;gt; list --&amp;gt;[{&#39;head&#39;: [2,...], &#39;tail&#39;: [3,...], &#39;start_index&#39;:[28,...], &#39;end_index&#39;:[37,...]}]&lt;/pre&gt;" style="text;html=1;strokeColor=none;fillColor=none;align=left;verticalAlign=middle;whiteSpace=wrap;rounded=0;fontSize=19;horizontal=1;" vertex="1" parent="1">
          <mxGeometry x="18" y="20" width="680" height="64" as="geometry" />
        </mxCell>
        <mxCell id="e8mMAGKtb8gV0RsEyelg-19" value="&lt;pre style=&quot;background-color: #2b2b2b ; color: #a9b7c6 ; font-family: &amp;#34;jetbrains mono&amp;#34; , monospace ; font-size: 9.8pt&quot;&gt;&lt;pre style=&quot;font-family: &amp;#34;jetbrains mono&amp;#34; , monospace ; font-size: 9.8pt&quot;&gt;loss--&amp;gt;tensor(6.6466)&lt;br&gt;pred_relations--&amp;gt;[{&#39;head_id&#39;:29,&#39;head&#39;:(401, 406),&#39;head_type&#39;:1,&lt;br&gt;                   &#39;tail_id&#39;:17,&#39;tail&#39;:(113, 120),&#39;tail_type&#39;:2,&#39;type&#39;:1},...]&lt;br&gt;&lt;/pre&gt;&lt;/pre&gt;" style="text;html=1;strokeColor=none;fillColor=none;align=left;verticalAlign=middle;whiteSpace=wrap;rounded=0;fontSize=19;horizontal=1;" vertex="1" parent="1">
          <mxGeometry x="415" y="92" width="515" height="50" as="geometry" />
        </mxCell>
        <mxCell id="e8mMAGKtb8gV0RsEyelg-24" value="&lt;pre style=&quot;background-color: rgb(43 , 43 , 43) ; color: rgb(169 , 183 , 198) ; font-family: &amp;#34;jetbrains mono&amp;#34; , monospace&quot;&gt;&lt;b&gt;&lt;font style=&quot;font-size: 19px&quot;&gt;encoder&lt;/font&gt;&lt;/b&gt;&lt;/pre&gt;" style="ellipse;whiteSpace=wrap;html=1;fontSize=19;" vertex="1" parent="1">
          <mxGeometry x="340" y="479" width="120" height="80" as="geometry" />
        </mxCell>
        <mxCell id="e8mMAGKtb8gV0RsEyelg-25" value="final_embedding" style="rounded=0;whiteSpace=wrap;html=1;fontSize=19;" vertex="1" parent="1">
          <mxGeometry x="325" y="680" width="150" height="30" as="geometry" />
        </mxCell>
        <mxCell id="e8mMAGKtb8gV0RsEyelg-26" value="&lt;b&gt;&lt;span style=&quot;background-color: rgb(43 , 43 , 43) ; color: rgb(169 , 183 , 198) ; font-family: &amp;#34;jetbrains mono&amp;#34; , monospace&quot;&gt;&lt;font style=&quot;font-size: 19px&quot;&gt;text_layout_emb&lt;/font&gt;&lt;/span&gt;&lt;/b&gt;" style="rounded=0;whiteSpace=wrap;html=1;fontSize=19;" vertex="1" parent="1">
          <mxGeometry x="190" y="750" width="150" height="30" as="geometry" />
        </mxCell>
        <mxCell id="e8mMAGKtb8gV0RsEyelg-27" value="&lt;pre style=&quot;background-color: rgb(43 , 43 , 43) ; color: rgb(169 , 183 , 198) ; font-family: &amp;#34;jetbrains mono&amp;#34; , monospace&quot;&gt;&lt;b&gt;visual_emb&lt;/b&gt;&lt;/pre&gt;" style="rounded=0;whiteSpace=wrap;html=1;fontSize=19;" vertex="1" parent="1">
          <mxGeometry x="475" y="750" width="150" height="30" as="geometry" />
        </mxCell>
        <mxCell id="e8mMAGKtb8gV0RsEyelg-32" style="edgeStyle=orthogonalEdgeStyle;rounded=0;orthogonalLoop=1;jettySize=auto;html=1;exitX=0.5;exitY=0;exitDx=0;exitDy=0;entryX=0.09;entryY=1;entryDx=0;entryDy=0;entryPerimeter=0;fontSize=19;" edge="1" parent="1" source="e8mMAGKtb8gV0RsEyelg-28" target="e8mMAGKtb8gV0RsEyelg-26">
          <mxGeometry relative="1" as="geometry" />
        </mxCell>
        <mxCell id="e8mMAGKtb8gV0RsEyelg-28" value="&lt;pre style=&quot;background-color: #2b2b2b ; color: #a9b7c6 ; font-family: &amp;#34;jetbrains mono&amp;#34; , monospace ; font-size: 9.8pt&quot;&gt;input_ids--&amp;gt;[&lt;span style=&quot;font-size: 9.8pt ; white-space: normal&quot;&gt;batch_size, seq_length]&lt;/span&gt;&lt;/pre&gt;" style="text;html=1;strokeColor=none;fillColor=none;align=center;verticalAlign=middle;whiteSpace=wrap;rounded=0;fontSize=19;flipV=1;flipH=0;" vertex="1" parent="1">
          <mxGeometry x="69" y="810" width="270" height="30" as="geometry" />
        </mxCell>
        <mxCell id="e8mMAGKtb8gV0RsEyelg-33" style="edgeStyle=orthogonalEdgeStyle;rounded=0;orthogonalLoop=1;jettySize=auto;html=1;exitX=0.5;exitY=0;exitDx=0;exitDy=0;entryX=0.302;entryY=0.947;entryDx=0;entryDy=0;entryPerimeter=0;fontSize=19;" edge="1" parent="1" source="e8mMAGKtb8gV0RsEyelg-29" target="e8mMAGKtb8gV0RsEyelg-26">
          <mxGeometry relative="1" as="geometry" />
        </mxCell>
        <mxCell id="e8mMAGKtb8gV0RsEyelg-29" value="&lt;pre style=&quot;background-color: #2b2b2b ; color: #a9b7c6 ; font-family: &amp;#34;jetbrains mono&amp;#34; , monospace ; font-size: 9.8pt&quot;&gt;bbox--&amp;gt;[&lt;span style=&quot;font-size: 9.8pt ; white-space: normal&quot;&gt;batch_size, seq_length, 4]&lt;/span&gt;&lt;/pre&gt;" style="text;html=1;strokeColor=none;fillColor=none;align=center;verticalAlign=middle;whiteSpace=wrap;rounded=0;fontSize=19;flipV=1;flipH=0;" vertex="1" parent="1">
          <mxGeometry x="100" y="840" width="270" height="30" as="geometry" />
        </mxCell>
        <mxCell id="e8mMAGKtb8gV0RsEyelg-34" style="edgeStyle=orthogonalEdgeStyle;rounded=0;orthogonalLoop=1;jettySize=auto;html=1;exitX=0.5;exitY=0;exitDx=0;exitDy=0;entryX=0.5;entryY=1;entryDx=0;entryDy=0;fontSize=19;" edge="1" parent="1" source="e8mMAGKtb8gV0RsEyelg-30" target="e8mMAGKtb8gV0RsEyelg-26">
          <mxGeometry relative="1" as="geometry" />
        </mxCell>
        <mxCell id="e8mMAGKtb8gV0RsEyelg-30" value="&lt;pre style=&quot;background-color: #2b2b2b ; color: #a9b7c6 ; font-family: &amp;#34;jetbrains mono&amp;#34; , monospace ; font-size: 9.8pt&quot;&gt;&lt;span style=&quot;font-family: &amp;#34;jetbrains mono&amp;#34; , monospace ; font-size: 9.8pt&quot;&gt;token_type_ids&lt;/span&gt;--&amp;gt;[&lt;span style=&quot;font-size: 9.8pt&quot;&gt;batch_size, seq_length]&lt;/span&gt;&lt;/pre&gt;" style="text;html=1;strokeColor=none;fillColor=none;align=center;verticalAlign=middle;whiteSpace=wrap;rounded=0;fontSize=19;flipV=1;flipH=0;" vertex="1" parent="1">
          <mxGeometry x="131" y="870" width="270" height="30" as="geometry" />
        </mxCell>
        <mxCell id="e8mMAGKtb8gV0RsEyelg-35" style="edgeStyle=orthogonalEdgeStyle;rounded=0;orthogonalLoop=1;jettySize=auto;html=1;exitX=0.5;exitY=0;exitDx=0;exitDy=0;entryX=0.75;entryY=1;entryDx=0;entryDy=0;fontSize=19;" edge="1" parent="1" source="e8mMAGKtb8gV0RsEyelg-31" target="e8mMAGKtb8gV0RsEyelg-26">
          <mxGeometry relative="1" as="geometry" />
        </mxCell>
        <mxCell id="e8mMAGKtb8gV0RsEyelg-31" value="&lt;pre style=&quot;background-color: #2b2b2b ; color: #a9b7c6 ; font-family: &amp;#34;jetbrains mono&amp;#34; , monospace ; font-size: 9.8pt&quot;&gt;&lt;span style=&quot;font-family: &amp;#34;jetbrains mono&amp;#34; , monospace ; font-size: 9.8pt&quot;&gt;position_ids&lt;/span&gt;--&amp;gt;[&lt;span style=&quot;font-size: 9.8pt&quot;&gt;batch_size, seq_length]&lt;/span&gt;&lt;/pre&gt;" style="text;html=1;strokeColor=none;fillColor=none;align=center;verticalAlign=middle;whiteSpace=wrap;rounded=0;fontSize=19;flipV=1;flipH=0;" vertex="1" parent="1">
          <mxGeometry x="167" y="900" width="270" height="30" as="geometry" />
        </mxCell>
        <mxCell id="e8mMAGKtb8gV0RsEyelg-37" value="&lt;span style=&quot;color: rgb(169 , 183 , 198) ; font-family: &amp;#34;jetbrains mono&amp;#34; , monospace ; background-color: rgb(43 , 43 , 43)&quot;&gt;[batch_size,seq_length,hidden_size]&lt;/span&gt;" style="text;html=1;strokeColor=none;fillColor=none;align=center;verticalAlign=middle;whiteSpace=wrap;rounded=0;fontSize=13;" vertex="1" parent="1">
          <mxGeometry x="150" y="730" width="240" height="20" as="geometry" />
        </mxCell>
        <mxCell id="e8mMAGKtb8gV0RsEyelg-38" value="&lt;span style=&quot;color: rgb(169 , 183 , 198) ; font-family: &amp;#34;jetbrains mono&amp;#34; , monospace ; background-color: rgb(43 , 43 , 43)&quot;&gt;[batch_size,seq_length,hidden_size]&lt;/span&gt;" style="text;html=1;strokeColor=none;fillColor=none;align=center;verticalAlign=middle;whiteSpace=wrap;rounded=0;fontSize=13;" vertex="1" parent="1">
          <mxGeometry x="430" y="730" width="240" height="20" as="geometry" />
        </mxCell>
        <mxCell id="e8mMAGKtb8gV0RsEyelg-50" style="edgeStyle=orthogonalEdgeStyle;rounded=0;orthogonalLoop=1;jettySize=auto;html=1;exitX=0.75;exitY=0;exitDx=0;exitDy=0;entryX=0.75;entryY=1;entryDx=0;entryDy=0;fontSize=13;" edge="1" parent="1" source="e8mMAGKtb8gV0RsEyelg-39" target="e8mMAGKtb8gV0RsEyelg-27">
          <mxGeometry relative="1" as="geometry" />
        </mxCell>
        <mxCell id="e8mMAGKtb8gV0RsEyelg-39" value="&lt;pre style=&quot;background-color: #2b2b2b ; color: #a9b7c6 ; font-family: &amp;#34;jetbrains mono&amp;#34; , monospace ; font-size: 9.8pt&quot;&gt;&lt;span style=&quot;font-family: &amp;#34;jetbrains mono&amp;#34; , monospace ; font-size: 9.8pt&quot;&gt;position_ids&lt;/span&gt;--&amp;gt;[&lt;span style=&quot;font-size: 9.8pt&quot;&gt;batch_size, 49]&lt;/span&gt;&lt;/pre&gt;" style="text;html=1;strokeColor=none;fillColor=none;align=center;verticalAlign=middle;whiteSpace=wrap;rounded=0;fontSize=19;flipV=1;flipH=0;" vertex="1" parent="1">
          <mxGeometry x="419" y="878" width="226" height="30" as="geometry" />
        </mxCell>
        <mxCell id="e8mMAGKtb8gV0RsEyelg-48" style="edgeStyle=orthogonalEdgeStyle;rounded=0;orthogonalLoop=1;jettySize=auto;html=1;exitX=0.5;exitY=0;exitDx=0;exitDy=0;entryX=0.5;entryY=1;entryDx=0;entryDy=0;fontSize=13;" edge="1" parent="1" source="e8mMAGKtb8gV0RsEyelg-40" target="e8mMAGKtb8gV0RsEyelg-27">
          <mxGeometry relative="1" as="geometry" />
        </mxCell>
        <mxCell id="e8mMAGKtb8gV0RsEyelg-40" value="&lt;pre style=&quot;background-color: #2b2b2b ; color: #a9b7c6 ; font-family: &amp;#34;jetbrains mono&amp;#34; , monospace ; font-size: 9.8pt&quot;&gt;image--&amp;gt;list--&amp;gt;[[3, 224, 224],...]&lt;/pre&gt;" style="text;html=1;strokeColor=none;fillColor=none;align=center;verticalAlign=middle;whiteSpace=wrap;rounded=0;fontSize=19;flipV=1;flipH=0;" vertex="1" parent="1">
          <mxGeometry x="414" y="846" width="270" height="30" as="geometry" />
        </mxCell>
        <mxCell id="e8mMAGKtb8gV0RsEyelg-46" style="edgeStyle=orthogonalEdgeStyle;rounded=0;orthogonalLoop=1;jettySize=auto;html=1;exitX=0.5;exitY=0;exitDx=0;exitDy=0;entryX=0.25;entryY=1;entryDx=0;entryDy=0;fontSize=13;" edge="1" parent="1" source="e8mMAGKtb8gV0RsEyelg-41" target="e8mMAGKtb8gV0RsEyelg-27">
          <mxGeometry relative="1" as="geometry" />
        </mxCell>
        <mxCell id="e8mMAGKtb8gV0RsEyelg-41" value="&lt;pre style=&quot;background-color: #2b2b2b ; color: #a9b7c6 ; font-family: &amp;#34;jetbrains mono&amp;#34; , monospace ; font-size: 9.8pt&quot;&gt;bbox--&amp;gt;[&lt;span style=&quot;font-size: 9.8pt ; white-space: normal&quot;&gt;batch_size, 49, 4]&lt;/span&gt;&lt;/pre&gt;" style="text;html=1;strokeColor=none;fillColor=none;align=center;verticalAlign=middle;whiteSpace=wrap;rounded=0;fontSize=19;flipV=1;flipH=0;" vertex="1" parent="1">
          <mxGeometry x="377" y="810" width="270" height="30" as="geometry" />
        </mxCell>
      </root>
    </mxGraphModel>
  </diagram>
</mxfile>
